<svg xmlns="http://www.w3.org/2000/svg" width="1005" height="600"><rect width="1005" height="600" x="0" y="0" fill="#FFFFFF" id="background"/><g transform="translate(402.5,300)" id="viz"><path fill="#8c564b" display="" d="M0.14999997500002227,-199.69994366550907A199.7,199.7,0,0,1,133.79219644443407,-148.25565139506134L66.94097855978633,-74.28933563748048A100,100,0,0,0,0.14999997500000778,-99.99988749997422Z"><title>amigo</title></path><path fill="#1f77b4" display="" d="M134.01476292917224,-148.05449441687935A199.7,199.7,0,0,1,199.63854190579738,4.954047408652773L99.97105452244811,2.4058798119830502A100,100,0,0,0,67.16354504452447,-74.08817865929849Z"><title>Don Nazareno</title></path><path fill="#7f7f7f" display="" d="M199.63087440608882,5.253949358376716A199.7,199.7,0,1,1,-174.61215841972157,-96.90554231831143L-87.4735500553143,-48.46006645394146A100,100,0,1,0,99.96338702273955,2.705781761706995Z"><title>yo</title></path><path fill="#9467bd" display="" d="M-174.46638477729852,-97.16774455929094A199.7,199.7,0,0,1,-95.42649766045955,-175.42483730720204L-47.85069701201047,-87.80837542891209A100,100,0,0,0,-87.32777641289121,-48.72226869492103Z"><title>Ypf</title></path><path fill="#e377c2" display="" d="M-95.1628575463654,-175.56799407525892A199.7,199.7,0,0,1,-77.65781383095255,-183.98193919783841L-38.956219966790115,-92.10001588435837A100,100,0,0,0,-47.58705689791643,-87.95153219696894Z"><title>quiosco</title></path><path fill="#ff7f0e" display="" d="M-77.38133883725554,-184.09839325685013A199.7,199.7,0,0,1,-58.13909296778258,-191.04956390655158L-29.184851598038406,-95.6464554345872A100,100,0,0,0,-38.67974497309321,-92.21646994337004Z"><title>Mc Donalds</title></path><path fill="#d62728" display="" d="M-57.852022640320335,-191.13668793934843A199.7,199.7,0,0,1,-44.764269883615945,-194.61821636678L-22.48873398955193,-97.43847722305173A100,100,0,0,0,-28.897781270576267,-95.73357946738402Z"><title>Starbucks</title></path><path fill="#2ca02c" display="" d="M-44.47185363025159,-194.68524400860346A199.7,199.7,0,0,1,-0.14999997500026846,-199.69994366550907L-0.14999997500010884,-99.99988749997422A100,100,0,0,0,-22.19631773618767,-97.50550486487519Z"><title>Passline</title></path><path fill="#8c564b" display="" d="M0.1499999750000083,-299.6999624624726A299.7,299.7,0,0,1,59.96043934485483,-293.64065746005264L39.96474760091891,-195.96637198559054A200,200,0,0,0,0.14999997500000387,-199.99994375001086Z"><title>asado</title></path><path fill="#8c564b" display="" d="M60.25434381084226,-293.5804899034076A299.7,299.7,0,0,1,76.39790434824972,-289.798982419186L50.9346661780286,-193.40542852084786A200,200,0,0,0,40.25865206690634,-195.90620442894547Z"><title>nafta</title></path><path fill="#8c564b" display="" d="M76.68795505960638,-289.72236287310614A299.7,299.7,0,0,1,113.32014560379936,-277.45023806141114L75.57618844158968,-185.1708393366551A200,200,0,0,0,51.224716889385256,-193.32880897476798Z"><title>fiesta</title></path><path fill="#8c564b" display="" d="M113.59781671520904,-277.3366655124017A299.7,299.7,0,0,1,159.47185033268565,-253.74952010096393L106.37873539508156,-169.36222912958846A200,200,0,0,0,75.85385955299935,-185.05726678764563Z"><title>club</title></path><path fill="#8c564b" display="" d="M159.72577388655233,-253.58976153690026A299.7,299.7,0,0,1,174.56278476206077,-243.61429386658418L116.45111623832196,-162.601160902525A200,200,0,0,0,106.63265894894829,-169.20247056552478Z"><title>truco</title></path><path fill="#8c564b" display="" d="M174.80655538670482,-243.43943434422224A299.7,299.7,0,0,1,191.02002254867622,-230.93601058627306L127.43570115642895,-154.14325178472566A200,200,0,0,0,116.69488686296599,-162.42630138016307Z"><title>alcohol</title></path><path fill="#8c564b" display="" d="M191.25109395767234,-230.7446837090588A299.7,299.7,0,0,1,200.84454628428958,-222.44450595116496L133.99335351280266,-148.47821797958477A200,200,0,0,0,127.66677256542505,-153.95192490751143Z"><title>casino online</title></path><path fill="#1f77b4" display="" d="M201.06711276902772,-222.243348972983A299.7,299.7,0,0,1,299.60589393249006,7.509881551230445L199.93844398997916,4.961714911798973A200,200,0,0,0,134.2159199975408,-148.2770610014028Z"><title>asado</title></path><path fill="#7f7f7f" display="" d="M299.5982264327815,7.8097835009543894A299.7,299.7,0,0,1,-277.58062106038386,113.00039297158028L-185.2201660851546,75.45521900695633A200,200,0,0,0,199.9307764902706,5.261616861522917Z"><title>venta guitarra</title></path><path fill="#7f7f7f" display="" d="M-277.6935954655804,112.72247795980427A299.7,299.7,0,0,1,-298.4622072067735,-27.21030814344084L-199.17850308678175,-18.108669418509795A200,200,0,0,0,-185.3331404903512,75.17730399518022Z"><title>asado</title></path><path fill="#7f7f7f" display="" d="M-298.4348201390712,-27.509055392001663A299.7,299.7,0,0,1,-281.43634868682756,-103.02267535754655L-187.8291918809475,-68.7036729538546A200,200,0,0,0,-199.15111601907947,-18.40741666707071Z"><title>clase particular</title></path><path fill="#7f7f7f" display="" d="M-281.3330819157866,-103.30434172756394A299.7,299.7,0,0,1,-271.46289071334235,-126.99601948705306L-181.17755602804527,-84.70356067902053A200,200,0,0,0,-187.7259251099065,-68.98533932387207Z"><title>casino online</title></path><path fill="#7f7f7f" display="" d="M-271.3356316045514,-127.26769040789249A299.7,299.7,0,0,1,-262.0129364083928,-145.49677369155478L-174.87436077825666,-97.05131602609069A200,200,0,0,0,-181.05029691925432,-84.97523159986001Z"><title>truco</title></path><path fill="#9467bd" display="" d="M-261.86716276596985,-145.75897593253407A299.7,299.7,0,0,1,-186.41070891578474,-234.67240485731287L-124.43727311480819,-156.57383261500192A200,200,0,0,0,-174.72858713583364,-97.31351826707015Z"><title>nafta</title></path><path fill="#9467bd" display="" d="M-186.17570828017472,-234.8588845378758A299.7,299.7,0,0,1,-143.14543726894223,-263.30490650400594L-95.5696544926991,-175.68847753949638A200,200,0,0,0,-124.2022724791982,-156.7603122955648Z"><title>Nafta</title></path><path fill="#e377c2" display="" d="M-142.8817971548482,-263.4480632720628A299.7,299.7,0,0,1,-116.47584726779378,-276.1403031128371L-77.77426794217506,-184.25841431548997A200,200,0,0,0,-95.30601437860517,-175.83163430755314Z"><title>quiosco</title></path><path fill="#ff7f0e" display="" d="M-116.19937227409689,-276.2567571718488A299.7,299.7,0,0,1,-87.18044753250689,-286.7397069957905L-58.22621703964044,-191.33663436271863A200,200,0,0,0,-77.49779294847825,-184.3748683745016Z"><title>Mc Donalds</title></path><path fill="#d62728" display="" d="M-86.89337720504477,-286.8268310285873A299.7,299.7,0,0,1,-67.10682508158249,-292.09033538867715L-44.83129755549043,-194.91063275124597A200,200,0,0,0,-57.93914671217839,-191.42375839551545Z"><title>Starbucks</title></path><path fill="#2ca02c" display="" d="M-66.81440882821825,-292.15736303050056A299.7,299.7,0,0,1,-0.14999997500031118,-299.6999624624726L-0.14999997500016157,-199.99994375001086A200,200,0,0,0,-44.53888130212628,-194.9776603930694Z"><title>Fiesta</title></path></g><g id="labels" transform="translate(402.5,300)" text-anchor="middle"><text transform="rotate(90) translate(50,0) rotate(180)"><tspan x="0" y="4" style="font-family: Arial, sans-serif; font-size: 10px; fill: black; font-weight: bold;"/></text><text transform="rotate(-68.94626410463408) translate(150,0) rotate(0)"><tspan x="0" y="4" style="font-family: Arial, sans-serif; font-size: 10px; fill: black; font-weight: bold;">amigo</tspan></text><text transform="rotate(-23.213991956463232) translate(150,0) rotate(0)"><tspan x="0" y="4" style="font-family: Arial, sans-serif; font-size: 10px; fill: black; font-weight: bold;">Don Nazareno</tspan></text><text transform="rotate(105.2684001672437) translate(150,0) rotate(180)"><tspan x="0" y="4" style="font-family: Arial, sans-serif; font-size: 10px; fill: black; font-weight: bold;">yo</tspan></text><text transform="rotate(225.2851322597096) translate(150,0) rotate(180)"><tspan x="0" y="4" style="font-family: Arial, sans-serif; font-size: 10px; fill: black; font-weight: bold;">Ypf</tspan></text><text transform="rotate(244.32834561815048) translate(150,0) rotate(180)"><tspan x="0" y="4" style="font-family: Arial, sans-serif; font-size: 10px; fill: black; font-weight: bold;">quiosco</tspan></text><text transform="rotate(250.13798500437173) translate(150,0) rotate(180)"><tspan x="0" y="4" style="font-family: Arial, sans-serif; font-size: 10px; fill: black; font-weight: bold;">Mc Donalds</tspan></text><text transform="rotate(255.10348875327878) translate(150,0) rotate(180)"><tspan x="0" y="4" style="font-family: Arial, sans-serif; font-size: 10px; fill: black; font-weight: bold;">Starbucks</tspan></text><text transform="rotate(263.5448451264208) translate(150,0) rotate(180)"><tspan x="0" y="4" style="font-family: Arial, sans-serif; font-size: 10px; fill: black; font-weight: bold;">Passline</tspan></text><text transform="rotate(-84.21518813252328) translate(250,0) rotate(0)"><tspan x="0" y="4" style="font-family: Arial, sans-serif; font-size: 10px; fill: black; font-weight: bold;">asado</tspan></text><text transform="rotate(-76.81658754665176) translate(250,0) rotate(0)"><tspan x="0" y="4" style="font-family: Arial, sans-serif; font-size: 10px; fill: black; font-weight: bold;">nafta</tspan></text><text transform="rotate(-71.47867101657668) translate(250,0) rotate(0)"><tspan x="0" y="4" style="font-family: Arial, sans-serif; font-size: 10px; fill: black; font-weight: bold;">fiesta</tspan></text><text transform="rotate(-62.78903945598934) translate(250,0) rotate(0)"><tspan x="0" y="4" style="font-family: Arial, sans-serif; font-size: 10px; fill: black; font-weight: bold;">club</tspan></text><text transform="rotate(-56.08560939496482) translate(250,0) rotate(0)"><tspan x="0" y="4" style="font-family: Arial, sans-serif; font-size: 10px; fill: black; font-weight: bold;">truco</tspan></text><text transform="rotate(-52.36148158328452) translate(250,0) rotate(0)"><tspan x="0" y="4" style="font-family: Arial, sans-serif; font-size: 10px; fill: black; font-weight: bold;">alcohol</tspan></text><text transform="rotate(-49.13390414649494) translate(250,0) rotate(0)"><tspan x="0" y="4" style="font-family: Arial, sans-serif; font-size: 10px; fill: black; font-weight: bold;">casino online</tspan></text><text transform="rotate(-23.213991956463232) translate(250,0) rotate(0)"><tspan x="0" y="4" style="font-family: Arial, sans-serif; font-size: 10px; fill: black; font-weight: bold;">asado</tspan></text><text transform="rotate(79.67122834162785) translate(250,0) rotate(0)"><tspan x="0" y="4" style="font-family: Arial, sans-serif; font-size: 10px; fill: black; font-weight: bold;">venta guitarra</tspan></text><text transform="rotate(171.55787521515288) translate(250,0) rotate(180)"><tspan x="0" y="4" style="font-family: Arial, sans-serif; font-size: 10px; fill: black; font-weight: bold;">asado</tspan></text><text transform="rotate(192.6860936667524) translate(250,0) rotate(180)"><tspan x="0" y="4" style="font-family: Arial, sans-serif; font-size: 10px; fill: black; font-weight: bold;">clase particular</tspan></text><text transform="rotate(202.61710116456658) translate(250,0) rotate(180)"><tspan x="0" y="4" style="font-family: Arial, sans-serif; font-size: 10px; fill: black; font-weight: bold;">casino online</tspan></text><text transform="rotate(207.0860545385829) translate(250,0) rotate(180)"><tspan x="0" y="4" style="font-family: Arial, sans-serif; font-size: 10px; fill: black; font-weight: bold;">truco</tspan></text><text transform="rotate(220.31962851080254) translate(250,0) rotate(180)"><tspan x="0" y="4" style="font-family: Arial, sans-serif; font-size: 10px; fill: black; font-weight: bold;">nafta</tspan></text><text transform="rotate(236.53250473236648) translate(250,0) rotate(180)"><tspan x="0" y="4" style="font-family: Arial, sans-serif; font-size: 10px; fill: black; font-weight: bold;">Nafta</tspan></text><text transform="rotate(244.32834561815048) translate(250,0) rotate(180)"><tspan x="0" y="4" style="font-family: Arial, sans-serif; font-size: 10px; fill: black; font-weight: bold;">quiosco</tspan></text><text transform="rotate(250.13798500437173) translate(250,0) rotate(180)"><tspan x="0" y="4" style="font-family: Arial, sans-serif; font-size: 10px; fill: black; font-weight: bold;">Mc Donalds</tspan></text><text transform="rotate(255.10348875327878) translate(250,0) rotate(180)"><tspan x="0" y="4" style="font-family: Arial, sans-serif; font-size: 10px; fill: black; font-weight: bold;">Starbucks</tspan></text><text transform="rotate(263.5448451264208) translate(250,0) rotate(180)"><tspan x="0" y="4" style="font-family: Arial, sans-serif; font-size: 10px; fill: black; font-weight: bold;">Fiesta</tspan></text></g><g id="legend" transform="translate(805,0)"><g transform="translate(5,0)"><g class="legendColor" transform="translate(0,0)"><g class="legendCells" transform="translate(0,16)"><g class="cell" transform="translate(0, 0)"><rect class="swatch" height="15" width="15" style="fill: rgb(31, 119, 180);"/><text class="label" transform="translate( 20, 12.5)" font-family="&quot;Arial&quot;, sans-serif" font-size="10px"><tspan x="0" dy="0em">Don Nazareno</tspan></text></g><g class="cell" transform="translate(0, 21)"><rect class="swatch" height="15" width="15" style="fill: rgb(255, 127, 14);"/><text class="label" transform="translate( 20, 12.5)" font-family="&quot;Arial&quot;, sans-serif" font-size="10px"><tspan x="0" dy="0em">Mc Donalds</tspan></text></g><g class="cell" transform="translate(0, 42)"><rect class="swatch" height="15" width="15" style="fill: rgb(44, 160, 44);"/><text class="label" transform="translate( 20, 12.5)" font-family="&quot;Arial&quot;, sans-serif" font-size="10px"><tspan x="0" dy="0em">Passline</tspan></text></g><g class="cell" transform="translate(0, 63)"><rect class="swatch" height="15" width="15" style="fill: rgb(214, 39, 40);"/><text class="label" transform="translate( 20, 12.5)" font-family="&quot;Arial&quot;, sans-serif" font-size="10px"><tspan x="0" dy="0em">Starbucks</tspan></text></g><g class="cell" transform="translate(0, 84)"><rect class="swatch" height="15" width="15" style="fill: rgb(148, 103, 189);"/><text class="label" transform="translate( 20, 12.5)" font-family="&quot;Arial&quot;, sans-serif" font-size="10px"><tspan x="0" dy="0em">Ypf</tspan></text></g><g class="cell" transform="translate(0, 105)"><rect class="swatch" height="15" width="15" style="fill: rgb(140, 86, 75);"/><text class="label" transform="translate( 20, 12.5)" font-family="&quot;Arial&quot;, sans-serif" font-size="10px"><tspan x="0" dy="0em">amigo</tspan></text></g><g class="cell" transform="translate(0, 126)"><rect class="swatch" height="15" width="15" style="fill: rgb(227, 119, 194);"/><text class="label" transform="translate( 20, 12.5)" font-family="&quot;Arial&quot;, sans-serif" font-size="10px"><tspan x="0" dy="0em">quiosco</tspan></text></g><g class="cell" transform="translate(0, 147)"><rect class="swatch" height="15" width="15" style="fill: rgb(127, 127, 127);"/><text class="label" transform="translate( 20, 12.5)" font-family="&quot;Arial&quot;, sans-serif" font-size="10px"><tspan x="0" dy="0em">yo</tspan></text></g></g><text class="legendTitle" font-family="&quot;Arial&quot;, sans-serif" font-size="12px" font-weight="bold"><tspan x="0" dy="0em">destinatario</tspan></text></g></g></g></svg>