<svg xmlns="http://www.w3.org/2000/svg" width="1000" height="600"><rect width="1000" height="600" x="0" y="0" fill="#ffffff" id="background"/><g transform="translate(400,300)" id="viz"><path fill="#cccccc" display="" d="M0.09999999259260153,-149.79996662216413A149.8,149.8,0,0,1,149.7978853037051,0.795963904969058L74.9991899391278,0.34858065728222914A75,75,0,0,0,0.09999999259260418,-74.99993333331358Z"><title>asado</title></path><path fill="#cccccc" display="" d="M149.79668909243387,0.9959603128184716A149.8,149.8,0,0,1,133.9140858364532,67.13462306877909L67.06880148575661,33.56748228962326A75,75,0,0,0,74.99799372785655,0.5485770651316427Z"><title>nafta</title></path><path fill="#8c564b" display="" d="M133.82433416973115,67.31335368281789A149.8,149.8,0,0,1,123.82679849917565,84.30281118352195L62.02414782104992,42.16639760606244A75,75,0,0,0,66.97904981903456,33.74621290366205Z"><title>fiesta</title></path><path fill="#7f7f7f" display="" d="M123.71413435023463,84.46805882682578A149.8,149.8,0,0,1,-145.15627741313205,-37.0093924235708L-72.6873590980442,-18.481012617061108A75,75,0,0,0,61.91148367210889,42.33164524936626Z"><title>venta guitarra</title></path><path fill="#8c564b" display="" d="M-145.10673631637212,-37.20315948425424A149.8,149.8,0,0,1,-136.34923766564415,-62.03970815532333L-68.28630442958944,-31.01581253730804A75,75,0,0,0,-72.63781800128429,-18.674779677744556Z"><title>club</title></path><path fill="#cccccc" display="" d="M-136.26628611614376,-62.221694513354805A149.8,149.8,0,0,1,-126.91618559723153,-79.57588726146308L-63.569327729374976,-39.798750885364704A75,75,0,0,0,-68.20335288008906,-31.19779889533953Z"><title>truco</title></path><path fill="#8c564b" display="" d="M-126.80982967282696,-79.74526379885276A149.8,149.8,0,0,1,-124.7544204935778,-82.92390829737573L-62.4881183219897,-41.475716613182406A75,75,0,0,0,-63.46297180497039,-39.968127422754414Z"><title>alcohol</title></path><path fill="#7f7f7f" display="" d="M-124.64359650917153,-83.0903956499116A149.8,149.8,0,0,1,-98.56284369876744,-112.80694057553526L-49.384809463888935,-56.44590856931426A75,75,0,0,0,-62.377294337583436,-41.64220396571827Z"><title>clase particular</title></path><path fill="#e377c2" display="" d="M-98.41214583045586,-112.9384325774229A149.8,149.8,0,0,1,-89.89388570343397,-119.82958446534793L-45.046885284786406,-59.96480739683313A75,75,0,0,0,-49.23411159557734,-56.5774005712019Z"><title>quiosco</title></path><path fill="#cccccc" display="" d="M-89.73381953767985,-119.94949616892565A149.8,149.8,0,0,1,-76.65722542232413,-128.7000768863445L-38.42267721782329,-64.4103863939269A75,75,0,0,0,-44.88681911903245,-60.08471910041074Z"><title>casino online</title></path><path fill="#ff7f0e" display="" d="M-76.48532794339656,-128.80230824558652A149.8,149.8,0,0,1,-66.27113595355155,-134.3435020364807L-33.22458147091525,-67.23932767423032A75,75,0,0,0,-38.25077973889588,-64.51261775316883Z"><title>Mc Donalds</title></path><path fill="#d62728" display="" d="M-66.09171312058974,-134.43186176195607A149.8,149.8,0,0,1,-59.520363829011664,-137.46769180306362L-29.845731029400188,-68.80575803899481A75,75,0,0,0,-33.045158637953605,-67.32768739970564Z"><title>Starbucks</title></path><path fill="#9467bd" display="" d="M-59.336775866121606,-137.54703569984216A149.8,149.8,0,0,1,-34.33223512265264,-145.81267994067903L-17.23763662480409,-72.99221796596684A75,75,0,0,0,-29.66214306651029,-68.88510193577328Z"><title>Nafta</title></path><path fill="#2ca02c" display="" d="M-34.137528106147855,-145.8583873995663A149.8,149.8,0,0,1,-0.09999999259281944,-149.79996662216413L-0.09999999259264669,-74.99993333331358A75,75,0,0,0,-17.042929608299488,-73.0379254248541Z"><title>Fiesta</title></path><path fill="#8c564b" display="" d="M0.099999992592584,-224.7999777580093A224.8,224.8,0,0,1,46.022852188505496,-220.03848998853584L30.67662852521947,-146.82964435809853A150,150,0,0,0,0.09999999259259093,-149.99996666666792Z"><title>amigo</title></path><path fill="#1f77b4" display="" d="M46.21859772153261,-219.99745731406796A224.8,224.8,0,0,1,199.0731417814901,-104.42664516897369L132.81804198335436,-69.70916527765858A150,150,0,0,0,30.87237405824661,-146.78861168363062Z"><title>Don Nazareno</title></path><path fill="#7f7f7f" display="" d="M199.16596924718996,-104.24949253510725A224.8,224.8,0,0,1,224.79655493833727,1.2445432315173546L149.99788177087206,0.7971601165950887A150,150,0,0,0,132.9108694490542,-69.53201264379214Z"><title>yo</title></path><path fill="#8c564b" display="" d="M224.79535872706603,1.4445396393667682A224.8,224.8,0,0,1,224.35148083440728,14.193415635729826L149.70281836847838,9.43748761770689A150,150,0,0,0,149.99668555960082,0.9971565244445023Z"><title>amigo</title></path><path fill="#9467bd" display="" d="M224.33876445215992,14.393010945535973A224.8,224.8,0,0,1,200.9380810173252,100.79150557995877L134.09281650350223,67.22437476212087A150,150,0,0,0,149.69010198623099,9.637082927513037Z"><title>Ypf</title></path><path fill="#8c564b" display="" d="M200.84832935060314,100.97023619399758A224.8,224.8,0,0,1,185.79467852918478,126.5518764390196L123.99204619149077,84.41547536587838A150,150,0,0,0,134.0030648367802,67.40310537615967Z"><title>amigo</title></path><path fill="#7f7f7f" display="" d="M185.68201438024377,126.71712408232344A224.8,224.8,0,0,1,-217.81894134064117,-55.58730784308877L-145.35004453128542,-37.058933535024266A150,150,0,0,0,123.87938204254974,84.58072300918222Z"><title>yo</title></path><path fill="#8c564b" display="" d="M-217.76940024388128,-55.781074903772264A224.8,224.8,0,0,1,-204.59413711548552,-93.14654614085224L-136.5312240776515,-62.122659729426566A150,150,0,0,0,-145.30050343452552,-37.25270059570768Z"><title>amigo</title></path><path fill="#8c564b" display="" d="M-204.5111855659851,-93.32853249888377A224.8,224.8,0,0,1,-198.4214187526047,-105.65973963721235L-132.41426959654382,-70.47312400634596A150,150,0,0,0,-136.44827252815114,-62.30464608745802Z"><title>amigo</title></path><path fill="#7f7f7f" display="" d="M-198.32733691354858,-105.83622930159504A224.8,224.8,0,0,1,-190.43240125402616,-119.45936778932652L-127.08556218485712,-79.6822432174121A150,150,0,0,0,-132.32018775748773,-70.64961367072857Z"><title>yo</title></path><path fill="#8c564b" display="" d="M-190.32604532962154,-119.62874432671627A224.8,224.8,0,0,1,-187.18719158905674,-124.48291169876201L-124.92090789549262,-83.03473231465162A150,150,0,0,0,-126.97920626045254,-79.85161975480176Z"><title>amigo</title></path><path fill="#7f7f7f" display="" d="M-187.07636760465044,-124.6493990512979A224.8,224.8,0,0,1,-147.87235538055756,-169.318653769176L-98.69433573965466,-112.9576384885428A150,150,0,0,0,-124.81008391108635,-83.20121966718746Z"><title>yo</title></path><path fill="#e377c2" display="" d="M-147.7216575122459,-169.45014577106366A224.8,224.8,0,0,1,-134.86078455251734,-179.8544099817391L-90.0137974425765,-119.98965067857647A150,150,0,0,0,-98.5436378713431,-113.0891304904304Z"><title>quiosco</title></path><path fill="#8c564b" display="" d="M-134.70071838676333,-179.97432168531677A224.8,224.8,0,0,1,-131.64974559337458,-182.21795873403852L-87.87155016836174,-121.56722696108966A150,150,0,0,0,-89.85373127682253,-120.10956238215408Z"><title>amigo</title></path><path fill="#7f7f7f" display="" d="M-131.48757789741992,-182.33501270647372A224.8,224.8,0,0,1,-114.99399366997942,-193.16164583019253L-76.75945681188712,-128.8719744162556A150,150,0,0,0,-87.70938247240717,-121.68428093352482Z"><title>yo</title></path><path fill="#ff7f0e" display="" d="M-114.8220961910519,-193.2638771894345A224.8,224.8,0,0,1,-99.40604038104016,-201.62707937120703L-66.35949570523368,-134.52292492265798A150,150,0,0,0,-76.58755933295967,-128.97420577549752Z"><title>Mc Donalds</title></path><path fill="#d62728" display="" d="M-99.22661754807844,-201.7154390966824A224.8,224.8,0,0,1,-89.27433174274934,-206.3131932084944L-59.59970774932293,-137.6512798204045A150,150,0,0,0,-66.18007287227202,-134.61128464813328Z"><title>Starbucks</title></path><path fill="#9467bd" display="" d="M-89.09074377985935,-206.39253710527294A224.8,224.8,0,0,1,-51.47253601998579,-218.82782737958917L-34.37794259509634,-146.00738701493245A150,150,0,0,0,-59.41611978643301,-137.73062371718297Z"><title>Ypf</title></path><path fill="#2ca02c" display="" d="M-51.27782900348108,-218.87353483847644A224.8,224.8,0,0,1,-0.0999999925928611,-224.7999777580093L-0.09999999259274252,-149.99996666666792A150,150,0,0,0,-34.18323557859171,-146.0530944738197Z"><title>Passline</title></path><path fill="#8c564b" display="" d="M0.09999999259261802,-299.7999833222168A299.8,299.8,0,0,1,26.452622974381356,-298.63070628750694L19.827849587997704,-224.1246447419733A225,225,0,0,0,0.09999999259263061,-224.99997777777997Z"><title>5000</title></path><path fill="#8c564b" display="" d="M26.651837013161902,-298.61299299230745A299.8,299.8,0,0,1,40.45442841324642,-297.0580401567302L30.336340056119635,-222.94552355227827A225,225,0,0,0,20.02706362677828,-224.10693144677379Z"><title>5300</title></path><path fill="#8c564b" display="" d="M40.652590192982146,-297.03098644855464A299.8,299.8,0,0,1,61.41010739533332,-293.4430757569407L46.06388487006902,-220.23423555541277A225,225,0,0,0,30.5345018358554,-222.91846984410276Z"><title>8000</title></path><path fill="#1f77b4" display="" d="M61.60585292836049,-293.4020430824728A299.8,299.8,0,0,1,138.92874383844267,-265.6667915556485L104.24395861866711,-199.3945763843882A225,225,0,0,0,46.25963040309622,-220.19320288094485Z"><title>31069.93</title></path><path fill="#1f77b4" display="" d="M139.1059422484691,-265.5740515019598A299.8,299.8,0,0,1,265.50538933088274,-139.23694996751541L199.25029444599107,-104.51947265072596A225,225,0,0,0,104.42115702869359,-199.30183633069947Z"><title>68330</title></path><path fill="#7f7f7f" display="" d="M265.5982167965826,-139.05979733364896A299.8,299.8,0,0,1,276.38344970428864,-116.15605334874692L207.41620317370663,-87.1981574404164A225,225,0,0,0,199.34312191169096,-104.34232001685952Z"><title>9600</title></path><path fill="#7f7f7f" display="" d="M276.46087722198075,-115.97164897358702A299.8,299.8,0,0,1,299.7952190014314,1.6931225247413697L224.99655138077154,1.2457394429954551A225,225,0,0,0,207.49363069139872,-87.0137530652565Z"><title>6500</title></path><path fill="#8c564b" display="" d="M299.79402279016017,1.8931189325907836A299.8,299.8,0,0,1,299.1997331089768,18.962059685516344L224.55107617872892,14.206132020176225A225,225,0,0,0,224.9953551695003,1.445735850844869Z"><title>6500</title></path><path fill="#9467bd" display="" d="M299.1870167267294,19.16165499532249A299.8,299.8,0,0,1,267.96207121908566,134.4483855908194L201.1168116622714,100.88125726220136A225,225,0,0,0,224.53835979648156,14.405727329982371Z"><title>45302.04</title></path><path fill="#8c564b" display="" d="M267.8723195523636,134.62711620485823A299.8,299.8,0,0,1,247.7625539556936,168.80093855589794L185.95992620106446,126.66454060744336A225,225,0,0,0,201.02705999554934,101.05998787624016Z"><title>15000</title></path><path fill="#7f7f7f" display="" d="M247.64988980675258,168.96618619920176A299.8,299.8,0,0,1,-290.48159987015066,-74.16522188248148L-218.01270843483223,-55.63684894841574A225,225,0,0,0,185.84726205212343,126.82978825074717Z"><title>315000</title></path><path fill="#8c564b" display="" d="M-290.43205877339074,-74.35898894316493A299.8,299.8,0,0,1,-272.8390314955162,-124.25338181550113L-204.7761235049874,-93.22949770469725A225,225,0,0,0,-217.96316733807234,-55.83061600909913Z"><title>20000</title></path><path fill="#8c564b" display="" d="M-272.75607994601586,-124.43536817353261A299.8,299.8,0,0,1,-270.5924081086429,-129.07280377355116L-203.09043299624304,-96.84666243809602A225,225,0,0,0,-204.69317195548703,-93.41148406272869Z"><title>2000</title></path><path fill="#8c564b" display="" d="M-270.5062419681092,-129.25329031127515A299.8,299.8,0,0,1,-264.60505270871107,-140.94043451408913L-198.5979084475072,-105.75382149253782A225,225,0,0,0,-203.00426685570932,-97.02714897581996Z"><title>5000</title></path><path fill="#7f7f7f" display="" d="M-264.51097086965495,-141.11692417847178A299.8,299.8,0,0,1,-253.94861219229688,-159.3428453543064L-190.60177782070562,-119.565723732123A225,225,0,0,0,-198.5038266084511,-105.93031115692041Z"><title>8000</title></path><path fill="#8c564b" display="" d="M-253.8422562678923,-159.51222189169613A299.8,299.8,0,0,1,-249.61995804649925,-166.04191201279264L-187.35367897038273,-124.59373570233282A225,225,0,0,0,-190.49542189630108,-119.73510026951266Z"><title>3000</title></path><path fill="#7f7f7f" display="" d="M-249.50913406209295,-166.2083993653285A299.8,299.8,0,0,1,-197.1818633992184,-225.83036276464682L-148.0038474051837,-169.4693516635474A225,225,0,0,0,-187.24285498597652,-124.7602230548686Z"><title>30000</title></path><path fill="#e377c2" display="" d="M-197.03116553090678,-225.9618547665345A299.8,299.8,0,0,1,-188.01500298283486,-233.51744828462947L-141.12475538224137,-175.23927475969117A225,225,0,0,0,-147.85314953687214,-169.60084366543498Z"><title>4500</title></path><path fill="#e377c2" display="" d="M-187.8591790125456,-233.64282325963353A299.8,299.8,0,0,1,-179.8276800610776,-239.87923103897663L-134.98069627683097,-180.01447617517297A225,225,0,0,0,-140.96893141195196,-175.36464973469535Z"><title>3900</title></path><path fill="#8c564b" display="" d="M-179.66761389532377,-239.99914274255408A299.8,299.8,0,0,1,-175.54499176462795,-243.03085373334125L-131.76679958605155,-182.38012645803633A225,225,0,0,0,-134.820630111077,-180.13438787875054Z"><title>2000</title></path><path fill="#7f7f7f" display="" d="M-175.38282406867356,-243.14790770577628A299.8,299.8,0,0,1,-153.33075906965394,-257.6232099852879L-115.09622504689993,-193.3335433388458A225,225,0,0,0,-131.604631890097,-182.4971804304715Z"><title>10000</title></path><path fill="#ff7f0e" display="" d="M-153.15886159072667,-257.7254413445297A299.8,299.8,0,0,1,-132.5409423469866,-268.9106517075379L-99.49440012179527,-201.80650223519584A225,225,0,0,0,-114.92432756797251,-193.43577469808773Z"><title>8900</title></path><path fill="#d62728" display="" d="M-132.36151951402513,-268.99901143301315A299.8,299.8,0,0,1,-119.02829744610953,-275.1586894994968L-89.35367565324852,-206.49678120313175A225,225,0,0,0,-99.31497728883362,-201.89486196067116Z"><title>5600</title></path><path fill="#9467bd" display="" d="M-118.84470948321982,-275.23803339627517A299.8,299.8,0,0,1,-68.61283564399172,-291.84296939431414L-51.518243486777074,-219.022534429764A225,225,0,0,0,-89.17008769035861,-206.5761250999102Z"><title>20000</title></path><path fill="#2ca02c" display="" d="M-68.4181286274873,-291.8886768532014A299.8,299.8,0,0,1,-0.09999999259278787,-299.7999833222168L-0.09999999259280805,-224.99997777777997A225,225,0,0,0,-51.32353647027247,-219.06824188865124Z"><title>26000</title></path></g><g id="labels" transform="translate(400,300)" text-anchor="middle"><text transform="rotate(90) translate(37.5,0) rotate(180)"><tspan x="0" y="4" style="font-family: Arial, sans-serif; font-size: 10px; fill: black; font-weight: bold;"/></text><text transform="rotate(-44.82865432258431) translate(112.5,0) rotate(0)"><tspan x="0" y="4" style="font-family: Arial, sans-serif; font-size: 10px; fill: black; font-weight: bold;">asado</tspan></text><text transform="rotate(13.503370639886839) translate(112.5,0) rotate(0)"><tspan x="0" y="4" style="font-family: Arial, sans-serif; font-size: 10px; fill: black; font-weight: bold;">nafta</tspan></text><text transform="rotate(30.47490735982005) translate(112.5,0) rotate(0)"><tspan x="0" y="4" style="font-family: Arial, sans-serif; font-size: 10px; fill: black; font-weight: bold;">fiesta</tspan></text><text transform="rotate(114.3137709271295) translate(112.5,0) rotate(180)"><tspan x="0" y="4" style="font-family: Arial, sans-serif; font-size: 10px; fill: black; font-weight: bold;">venta guitarra</tspan></text><text transform="rotate(199.4229203060649) translate(112.5,0) rotate(180)"><tspan x="0" y="4" style="font-family: Arial, sans-serif; font-size: 10px; fill: black; font-weight: bold;">club</tspan></text><text transform="rotate(208.31492098744621) translate(112.5,0) rotate(180)"><tspan x="0" y="4" style="font-family: Arial, sans-serif; font-size: 10px; fill: black; font-weight: bold;">truco</tspan></text><text transform="rotate(212.8879499092995) translate(112.5,0) rotate(180)"><tspan x="0" y="4" style="font-family: Arial, sans-serif; font-size: 10px; fill: black; font-weight: bold;">alcohol</tspan></text><text transform="rotate(221.2718362660304) translate(112.5,0) rotate(180)"><tspan x="0" y="4" style="font-family: Arial, sans-serif; font-size: 10px; fill: black; font-weight: bold;">clase particular</tspan></text><text transform="rotate(231.0276312993173) translate(112.5,0) rotate(180)"><tspan x="0" y="4" style="font-family: Arial, sans-serif; font-size: 10px; fill: black; font-weight: bold;">quiosco</tspan></text><text transform="rotate(236.210397410751) translate(112.5,0) rotate(180)"><tspan x="0" y="4" style="font-family: Arial, sans-serif; font-size: 10px; fill: black; font-weight: bold;">casino online</tspan></text><text transform="rotate(241.5201921033473) translate(112.5,0) rotate(180)"><tspan x="0" y="4" style="font-family: Arial, sans-serif; font-size: 10px; fill: black; font-weight: bold;">Mc Donalds</tspan></text><text transform="rotate(245.20402095706237) translate(112.5,0) rotate(180)"><tspan x="0" y="4" style="font-family: Arial, sans-serif; font-size: 10px; fill: black; font-weight: bold;">Starbucks</tspan></text><text transform="rotate(251.707884312587) translate(112.5,0) rotate(180)"><tspan x="0" y="4" style="font-family: Arial, sans-serif; font-size: 10px; fill: black; font-weight: bold;">Nafta</tspan></text><text transform="rotate(263.39451377954526) translate(112.5,0) rotate(180)"><tspan x="0" y="4" style="font-family: Arial, sans-serif; font-size: 10px; fill: black; font-weight: bold;">Fiesta</tspan></text><text transform="rotate(-84.0804681178233) translate(187.5,0) rotate(0)"><tspan x="0" y="4" style="font-family: Arial, sans-serif; font-size: 10px; fill: black; font-weight: bold;">amigo</tspan></text><text transform="rotate(-52.907672084525046) translate(187.5,0) rotate(0)"><tspan x="0" y="4" style="font-family: Arial, sans-serif; font-size: 10px; fill: black; font-weight: bold;">Don Nazareno</tspan></text><text transform="rotate(-13.655858289286058) translate(187.5,0) rotate(0)"><tspan x="0" y="4" style="font-family: Arial, sans-serif; font-size: 10px; fill: black; font-weight: bold;">yo</tspan></text><text transform="rotate(1.994062909945029) translate(187.5,0) rotate(0)"><tspan x="0" y="4" style="font-family: Arial, sans-serif; font-size: 10px; fill: black; font-weight: bold;">amigo</tspan></text><text transform="rotate(15.154742195000509) translate(187.5,0) rotate(0)"><tspan x="0" y="4" style="font-family: Arial, sans-serif; font-size: 10px; fill: black; font-weight: bold;">Ypf</tspan></text><text transform="rotate(30.47490735982005) translate(187.5,0) rotate(0)"><tspan x="0" y="4" style="font-family: Arial, sans-serif; font-size: 10px; fill: black; font-weight: bold;">amigo</tspan></text><text transform="rotate(114.3137709271295) translate(187.5,0) rotate(180)"><tspan x="0" y="4" style="font-family: Arial, sans-serif; font-size: 10px; fill: black; font-weight: bold;">yo</tspan></text><text transform="rotate(199.4229203060649) translate(187.5,0) rotate(180)"><tspan x="0" y="4" style="font-family: Arial, sans-serif; font-size: 10px; fill: black; font-weight: bold;">amigo</tspan></text><text transform="rotate(206.28246368884476) translate(187.5,0) rotate(180)"><tspan x="0" y="4" style="font-family: Arial, sans-serif; font-size: 10px; fill: black; font-weight: bold;">amigo</tspan></text><text transform="rotate(210.0933211237225) translate(187.5,0) rotate(180)"><tspan x="0" y="4" style="font-family: Arial, sans-serif; font-size: 10px; fill: black; font-weight: bold;">yo</tspan></text><text transform="rotate(212.8879499092995) translate(187.5,0) rotate(180)"><tspan x="0" y="4" style="font-family: Arial, sans-serif; font-size: 10px; fill: black; font-weight: bold;">amigo</tspan></text><text transform="rotate(221.2718362660304) translate(187.5,0) rotate(180)"><tspan x="0" y="4" style="font-family: Arial, sans-serif; font-size: 10px; fill: black; font-weight: bold;">yo</tspan></text><text transform="rotate(231.0276312993173) translate(187.5,0) rotate(180)"><tspan x="0" y="4" style="font-family: Arial, sans-serif; font-size: 10px; fill: black; font-weight: bold;">quiosco</tspan></text><text transform="rotate(233.66982578749918) translate(187.5,0) rotate(180)"><tspan x="0" y="4" style="font-family: Arial, sans-serif; font-size: 10px; fill: black; font-weight: bold;">amigo</tspan></text><text transform="rotate(236.71851173540136) translate(187.5,0) rotate(180)"><tspan x="0" y="4" style="font-family: Arial, sans-serif; font-size: 10px; fill: black; font-weight: bold;">yo</tspan></text><text transform="rotate(241.5201921033473) translate(187.5,0) rotate(180)"><tspan x="0" y="4" style="font-family: Arial, sans-serif; font-size: 10px; fill: black; font-weight: bold;">Mc Donalds</tspan></text><text transform="rotate(245.20402095706237) translate(187.5,0) rotate(180)"><tspan x="0" y="4" style="font-family: Arial, sans-serif; font-size: 10px; fill: black; font-weight: bold;">Starbucks</tspan></text><text transform="rotate(251.707884312587) translate(187.5,0) rotate(180)"><tspan x="0" y="4" style="font-family: Arial, sans-serif; font-size: 10px; fill: black; font-weight: bold;">Ypf</tspan></text><text transform="rotate(263.39451377954526) translate(187.5,0) rotate(180)"><tspan x="0" y="4" style="font-family: Arial, sans-serif; font-size: 10px; fill: black; font-weight: bold;">Passline</tspan></text><text transform="rotate(-87.45942837674819) translate(262.5,0) rotate(0)"><tspan x="0" y="4" style="font-family: Arial, sans-serif; font-size: 10px; fill: black; font-weight: bold;">5000</tspan></text><text transform="rotate(-83.57235379317294) translate(262.5,0) rotate(0)"><tspan x="0" y="4" style="font-family: Arial, sans-serif; font-size: 10px; fill: black; font-weight: bold;">5300</tspan></text><text transform="rotate(-80.19339353424805) translate(262.5,0) rotate(0)"><tspan x="0" y="4" style="font-family: Arial, sans-serif; font-size: 10px; fill: black; font-weight: bold;">8000</tspan></text><text transform="rotate(-70.26739798620461) translate(262.5,0) rotate(0)"><tspan x="0" y="4" style="font-family: Arial, sans-serif; font-size: 10px; fill: black; font-weight: bold;">31069.93</tspan></text><text transform="rotate(-45.01413383508306) translate(262.5,0) rotate(0)"><tspan x="0" y="4" style="font-family: Arial, sans-serif; font-size: 10px; fill: black; font-weight: bold;">68330</tspan></text><text transform="rotate(-25.21545917508176) translate(262.5,0) rotate(0)"><tspan x="0" y="4" style="font-family: Arial, sans-serif; font-size: 10px; fill: black; font-weight: bold;">9600</tspan></text><text transform="rotate(-11.21690953096433) translate(262.5,0) rotate(0)"><tspan x="0" y="4" style="font-family: Arial, sans-serif; font-size: 10px; fill: black; font-weight: bold;">6500</tspan></text><text transform="rotate(1.994062909945029) translate(262.5,0) rotate(0)"><tspan x="0" y="4" style="font-family: Arial, sans-serif; font-size: 10px; fill: black; font-weight: bold;">6500</tspan></text><text transform="rotate(15.154742195000509) translate(262.5,0) rotate(0)"><tspan x="0" y="4" style="font-family: Arial, sans-serif; font-size: 10px; fill: black; font-weight: bold;">45302.04</tspan></text><text transform="rotate(30.47490735982005) translate(262.5,0) rotate(0)"><tspan x="0" y="4" style="font-family: Arial, sans-serif; font-size: 10px; fill: black; font-weight: bold;">15000</tspan></text><text transform="rotate(114.3137709271295) translate(262.5,0) rotate(180)"><tspan x="0" y="4" style="font-family: Arial, sans-serif; font-size: 10px; fill: black; font-weight: bold;">315000</tspan></text><text transform="rotate(199.4229203060649) translate(262.5,0) rotate(180)"><tspan x="0" y="4" style="font-family: Arial, sans-serif; font-size: 10px; fill: black; font-weight: bold;">20000</tspan></text><text transform="rotate(205.01217787721885) translate(262.5,0) rotate(180)"><tspan x="0" y="4" style="font-family: Arial, sans-serif; font-size: 10px; fill: black; font-weight: bold;">2000</tspan></text><text transform="rotate(206.79057801349512) translate(262.5,0) rotate(180)"><tspan x="0" y="4" style="font-family: Arial, sans-serif; font-size: 10px; fill: black; font-weight: bold;">5000</tspan></text><text transform="rotate(210.0933211237225) translate(262.5,0) rotate(180)"><tspan x="0" y="4" style="font-family: Arial, sans-serif; font-size: 10px; fill: black; font-weight: bold;">8000</tspan></text><text transform="rotate(212.8879499092995) translate(262.5,0) rotate(180)"><tspan x="0" y="4" style="font-family: Arial, sans-serif; font-size: 10px; fill: black; font-weight: bold;">3000</tspan></text><text transform="rotate(221.2718362660304) translate(262.5,0) rotate(180)"><tspan x="0" y="4" style="font-family: Arial, sans-serif; font-size: 10px; fill: black; font-weight: bold;">30000</tspan></text><text transform="rotate(230.0368083662491) translate(262.5,0) rotate(180)"><tspan x="0" y="4" style="font-family: Arial, sans-serif; font-size: 10px; fill: black; font-weight: bold;">4500</tspan></text><text transform="rotate(232.17088852978065) translate(262.5,0) rotate(180)"><tspan x="0" y="4" style="font-family: Arial, sans-serif; font-size: 10px; fill: black; font-weight: bold;">3900</tspan></text><text transform="rotate(233.66982578749918) translate(262.5,0) rotate(180)"><tspan x="0" y="4" style="font-family: Arial, sans-serif; font-size: 10px; fill: black; font-weight: bold;">2000</tspan></text><text transform="rotate(236.71851173540136) translate(262.5,0) rotate(180)"><tspan x="0" y="4" style="font-family: Arial, sans-serif; font-size: 10px; fill: black; font-weight: bold;">10000</tspan></text><text transform="rotate(241.5201921033473) translate(262.5,0) rotate(180)"><tspan x="0" y="4" style="font-family: Arial, sans-serif; font-size: 10px; fill: black; font-weight: bold;">8900</tspan></text><text transform="rotate(245.20402095706237) translate(262.5,0) rotate(180)"><tspan x="0" y="4" style="font-family: Arial, sans-serif; font-size: 10px; fill: black; font-weight: bold;">5600</tspan></text><text transform="rotate(251.707884312587) translate(262.5,0) rotate(180)"><tspan x="0" y="4" style="font-family: Arial, sans-serif; font-size: 10px; fill: black; font-weight: bold;">20000</tspan></text><text transform="rotate(263.39451377954526) translate(262.5,0) rotate(180)"><tspan x="0" y="4" style="font-family: Arial, sans-serif; font-size: 10px; fill: black; font-weight: bold;">26000</tspan></text></g><g id="legend" transform="translate(800,0)"><g transform="translate(5,0)"><g class="legendColor" transform="translate(0,0)"><g class="legendCells" transform="translate(0,16)"><g class="cell" transform="translate(0, 0)"><rect class="swatch" height="15" width="15" style="fill: rgb(31, 119, 180);"/><text class="label" transform="translate( 20, 12.5)" font-family="&quot;Arial&quot;, sans-serif" font-size="10px"><tspan x="0" dy="0em">Don Nazareno</tspan></text></g><g class="cell" transform="translate(0, 21)"><rect class="swatch" height="15" width="15" style="fill: rgb(255, 127, 14);"/><text class="label" transform="translate( 20, 12.5)" font-family="&quot;Arial&quot;, sans-serif" font-size="10px"><tspan x="0" dy="0em">Mc Donalds</tspan></text></g><g class="cell" transform="translate(0, 42)"><rect class="swatch" height="15" width="15" style="fill: rgb(44, 160, 44);"/><text class="label" transform="translate( 20, 12.5)" font-family="&quot;Arial&quot;, sans-serif" font-size="10px"><tspan x="0" dy="0em">Passline</tspan></text></g><g class="cell" transform="translate(0, 63)"><rect class="swatch" height="15" width="15" style="fill: rgb(214, 39, 40);"/><text class="label" transform="translate( 20, 12.5)" font-family="&quot;Arial&quot;, sans-serif" font-size="10px"><tspan x="0" dy="0em">Starbucks</tspan></text></g><g class="cell" transform="translate(0, 84)"><rect class="swatch" height="15" width="15" style="fill: rgb(148, 103, 189);"/><text class="label" transform="translate( 20, 12.5)" font-family="&quot;Arial&quot;, sans-serif" font-size="10px"><tspan x="0" dy="0em">Ypf</tspan></text></g><g class="cell" transform="translate(0, 105)"><rect class="swatch" height="15" width="15" style="fill: rgb(140, 86, 75);"/><text class="label" transform="translate( 20, 12.5)" font-family="&quot;Arial&quot;, sans-serif" font-size="10px"><tspan x="0" dy="0em">amigo</tspan></text></g><g class="cell" transform="translate(0, 126)"><rect class="swatch" height="15" width="15" style="fill: rgb(227, 119, 194);"/><text class="label" transform="translate( 20, 12.5)" font-family="&quot;Arial&quot;, sans-serif" font-size="10px"><tspan x="0" dy="0em">quiosco</tspan></text></g><g class="cell" transform="translate(0, 147)"><rect class="swatch" height="15" width="15" style="fill: rgb(127, 127, 127);"/><text class="label" transform="translate( 20, 12.5)" font-family="&quot;Arial&quot;, sans-serif" font-size="10px"><tspan x="0" dy="0em">yo</tspan></text></g></g><text class="legendTitle" font-family="&quot;Arial&quot;, sans-serif" font-size="12px" font-weight="bold"><tspan x="0" dy="0em">destinatario</tspan></text></g></g></g></svg>