<svg xmlns="http://www.w3.org/2000/svg" width="805" height="600"><rect width="805" height="600" x="0" y="0" fill="#FFFFFF" id="background"/><g transform="translate(402.5,300)" id="viz"><path fill="#e573fc" display="" d="M0.3499996824074997,-199.29969267468107A199.3,199.3,0,0,1,196.80576644076402,31.43215385021274L98.77585568661975,15.599049117688807A100,100,0,0,0,0.3499996824075011,-99.9993874992358Z"><title>diciembre</title></path><path fill="#eec1f7" display="" d="M196.69415386076003,32.123197801583586A199.3,199.3,0,0,1,-44.853483929642856,194.18716481624958L-22.335564992997867,97.47370176844403A100,100,0,0,0,98.66424310661576,16.290093069059658Z"><title>enero</title></path><path fill="#bf7df9" display="" d="M-45.535247823348,194.02842885944906A199.3,199.3,0,0,1,-167.79587108864456,107.54085570425308L-84.09838436990226,54.10602319864378A100,100,0,0,0,-23.017328886703023,97.31496581164352Z"><title>febrero</title></path><path fill="#ccccce" display="" d="M-168.17255018088738,106.9508455584009A199.3,199.3,0,0,1,-0.3499996824076126,-199.29969267468107L-0.3499996824075134,-99.9993874992358A100,100,0,0,0,-84.47506346214509,53.5160130527916Z"><title>marzo</title></path><path fill="#e573fc" display="" d="M0.34999968240753115,-299.2997953561317A299.3,299.3,0,0,1,125.44297746149046,-271.74353608797395L83.7187976701414,-181.63469634589623A200,200,0,0,0,0.34999968240750423,-199.9996937503213Z"><title>nafta</title></path><path fill="#e573fc" display="" d="M126.07818457169125,-271.4494085001965A299.3,299.3,0,0,1,218.55830326236497,-204.4816815146924L145.96695180485557,-136.72471971373344A200,200,0,0,0,84.35400478034218,-181.3405687581188Z"><title>fiesta</title></path><path fill="#e573fc" display="" d="M219.03594456842066,-203.96996099185722A299.3,299.3,0,0,1,228.6017901645608,-193.1882800108695L152.68264990883762,-129.1820746729798A200,200,0,0,0,146.44459311091128,-136.2129991908982Z"><title>quiosco</title></path><path fill="#e573fc" display="" d="M229.0529911437763,-192.6531008006078A299.3,299.3,0,0,1,270.0785187674028,-128.98869601792893L180.42337573527954,-86.2983515965754A200,200,0,0,0,153.1338508880531,-128.64689546271808Z"><title>asado</title></path><path fill="#e573fc" display="" d="M270.3794571702385,-128.35668716637696A299.3,299.3,0,0,1,297.6754332657728,-31.142036382266813L198.90230663288776,-20.925401217579964A200,200,0,0,0,180.72431413811526,-85.66634274502343Z"><title>previa</title></path><path fill="#e573fc" display="" d="M297.74745371701283,-30.445751838890637A299.3,299.3,0,0,1,298.92242622509474,15.02907514462545L199.7534926794307,9.926840502830018A200,200,0,0,0,198.97432708412774,-20.22911667420378Z"><title>delivery</title></path><path fill="#e573fc" display="" d="M298.88645888014105,15.72814986226182A299.3,299.3,0,0,1,295.52652186994203,47.37683897702212L197.49681208107276,31.543766703002163A200,200,0,0,0,199.717525334477,10.625915220466386Z"><title>restaurant</title></path><path fill="#eec1f7" display="" d="M295.41490928993807,48.06788292839297A299.3,299.3,0,0,1,287.82627547129,82.07633732279416L192.36477171684513,54.733852434540566A200,200,0,0,0,197.38519950106877,32.23481065437301Z"><title>delivery</title></path><path fill="#eec1f7" display="" d="M287.6335292228499,82.74927713767633A299.3,299.3,0,0,1,191.19338877525482,230.2728340222404L127.84968530895068,153.80005840831882A200,200,0,0,0,192.17202546840502,55.40679224942273Z"><title>fiesta</title></path><path fill="#eec1f7" display="" d="M190.6543068056524,230.71936480593945A299.3,299.3,0,0,1,106.82958850792772,279.58528040515085L71.49475379937411,186.784635822026A200,200,0,0,0,127.31060333934823,154.2465891920179Z"><title>restaurant</title></path><path fill="#eec1f7" display="" d="M106.17540597223926,279.8343673794021A299.3,299.3,0,0,1,83.709854957837,287.35544223650595L56.048567190693674,191.9858279037031A200,200,0,0,0,70.84057126368567,187.03372279627723Z"><title>quiosco</title></path><path fill="#eec1f7" display="" d="M83.03756290197761,287.5504358322208A299.3,299.3,0,0,1,-10.202742988995299,299.12605041269893L-6.701682088309358,199.88768710750352A200,200,0,0,0,55.376275134834344,192.1808214994179Z"><title>previa</title></path><path fill="#eec1f7" display="" d="M-10.90230714004401,299.101370272729A299.3,299.3,0,0,1,-67.53009304840211,291.5821951575133L-45.01222027440012,194.8689303762118A200,200,0,0,0,-7.401246239358026,199.8630069675336Z"><title>nafta</title></path><path fill="#bf7df9" display="" d="M-68.21185694210729,291.4234592007128A299.3,299.3,0,0,1,-142.4883509785496,263.2063066026604L-95.11226736647407,175.93651297103835A200,200,0,0,0,-45.693984168105274,194.7101944194113Z"><title>nafta</title></path><path fill="#bf7df9" display="" d="M-143.10354471069869,262.87233686950225A299.3,299.3,0,0,1,-169.09451050109675,246.95654783462314L-112.89749270972929,165.08832829687452A200,200,0,0,0,-95.72746109862324,175.60254323788016Z"><title>asado</title></path><path fill="#bf7df9" display="" d="M-169.6716267451711,246.56039640957616A299.3,299.3,0,0,1,-228.32896328521363,193.51065739410728L-152.50021488897673,129.39738969088953A200,200,0,0,0,-113.47460895380375,164.69217687182754Z"><title>delivery</title></path><path fill="#bf7df9" display="" d="M-228.78091898256645,192.97611538605594A299.3,299.3,0,0,1,-247.6797423574596,168.0334348448024L-165.44078823254674,112.3803612246981A200,200,0,0,0,-152.95217058632963,128.8628476828381Z"><title>fiesta</title></path><path fill="#bf7df9" display="" d="M-248.0720593395581,167.45370516961026A299.3,299.3,0,0,1,-252.08319781201936,161.3522586791592L-168.38588267650414,107.91753571711402A200,200,0,0,0,-165.83310521464531,111.80063154950591Z"><title>previa</title></path><path fill="#ccccce" display="" d="M-252.45987690426216,160.76224853330712A299.3,299.3,0,0,1,-298.2817550934465,-24.667480178834694L-199.3291191950852,-16.36771947803097A200,200,0,0,0,-168.76256176874696,107.32752557126186Z"><title>asado</title></path><path fill="#ccccce" display="" d="M-298.22324732633723,-25.365030142585777A299.3,299.3,0,0,1,-225.59620890618783,-196.68970620537232L-150.82550609525416,-131.3456002731361A200,200,0,0,0,-199.27061142797595,-17.065269441782146Z"><title>nafta</title></path><path fill="#ccccce" display="" d="M-225.13557662175634,-197.21678969902456A299.3,299.3,0,0,1,-191.28302697977028,-230.19837877243287L-127.9095549783998,-153.75027071594937A200,200,0,0,0,-150.36487381082262,-131.87268376678847Z"><title>fiesta</title></path><path fill="#ccccce" display="" d="M-190.74411889996517,-230.64511940441307A299.3,299.3,0,0,1,-162.64503427753633,-251.25103547022258L-108.78107879965249,-167.8293088086339A200,200,0,0,0,-127.37064689859463,-154.1970113479296Z"><title>delivery</title></path><path fill="#ccccce" display="" d="M-162.05696684627947,-251.63074036489238A299.3,299.3,0,0,1,-152.05812695707834,-257.79607449746993L-101.70917405199282,-172.2069798633651A200,200,0,0,0,-108.19301136839555,-168.20901370330375Z"><title>truco</title></path><path fill="#ccccce" display="" d="M-151.4547810298326,-258.1510009726971A299.3,299.3,0,0,1,-135.5320241786816,-266.8549426599202L-90.66952128188751,-178.2667605318315A200,200,0,0,0,-101.105828124747,-172.56190633859237Z"><title>previa</title></path><path fill="#ccccce" display="" d="M-134.9075366885687,-267.1711933285894A299.3,299.3,0,0,1,-122.05092515204386,-273.28384816803606L-81.6635980604284,-182.56795105336752A200,200,0,0,0,-90.04503379177453,-178.58301120050078Z"><title>quiosco</title></path><path fill="#ccccce" display="" d="M-121.41143869299711,-273.56855183755425A299.3,299.3,0,0,1,-105.60854992591463,-280.04878893247445L-70.67900420971519,-187.09483788689377A200,200,0,0,0,-81.02411160138158,-182.85265472288572Z"><title>casino online</title></path><path fill="#ccccce" display="" d="M-104.95328668210408,-280.2950188901402A299.3,299.3,0,0,1,-81.1209056745416,-288.09701258871485L-54.318852330947145,-192.4823687547739A200,200,0,0,0,-70.02374096590455,-187.34106784455963Z"><title>restaurant</title></path><path fill="#ccccce" display="" d="M-80.446886324426,-288.28594915587695A299.3,299.3,0,0,1,-46.39604964734654,-295.68208700751717L-31.117752268413206,-197.56438316093735A200,200,0,0,0,-53.64483298083146,-192.67130532193605Z"><title>Nafta</title></path><path fill="#ccccce" display="" d="M-45.70438539666583,-295.7897887952068A299.3,299.3,0,0,1,-0.34999968240723556,-299.2997953561317L-0.34999968240735113,-199.9996937503213A200,200,0,0,0,-30.4260880177324,-197.67208494862697Z"><title>Fiesta</title></path></g><g id="labels" transform="translate(402.5,300)" text-anchor="middle"><text transform="rotate(90) translate(50,0) rotate(180)"><tspan x="0" y="4" style="font-family: Arial, sans-serif; font-size: 10px; fill: black; font-weight: bold;"/></text><text transform="rotate(-40.41260927134083) translate(150,0) rotate(0)"><tspan x="0" y="4" style="font-family: Arial, sans-serif; font-size: 10px; fill: black; font-weight: bold;">diciembre</tspan></text><text transform="rotate(56.140760099879515) translate(150,0) rotate(0)"><tspan x="0" y="4" style="font-family: Arial, sans-serif; font-size: 10px; fill: black; font-weight: bold;">enero</tspan></text><text transform="rotate(125.27571578238638) translate(150,0) rotate(180)"><tspan x="0" y="4" style="font-family: Arial, sans-serif; font-size: 10px; fill: black; font-weight: bold;">febrero</tspan></text><text transform="rotate(208.72234641116603) translate(150,0) rotate(180)"><tspan x="0" y="4" style="font-family: Arial, sans-serif; font-size: 10px; fill: black; font-weight: bold;">marzo</tspan></text><text transform="rotate(-77.5769402734791) translate(250,0) rotate(0)"><tspan x="0" y="4" style="font-family: Arial, sans-serif; font-size: 10px; fill: black; font-weight: bold;">nafta</tspan></text><text transform="rotate(-54.0905349314831) translate(250,0) rotate(0)"><tspan x="0" y="4" style="font-family: Arial, sans-serif; font-size: 10px; fill: black; font-weight: bold;">fiesta</tspan></text><text transform="rotate(-41.580444120138175) translate(250,0) rotate(0)"><tspan x="0" y="4" style="font-family: Arial, sans-serif; font-size: 10px; fill: black; font-weight: bold;">quiosco</tspan></text><text transform="rotate(-32.79784975462256) translate(250,0) rotate(0)"><tspan x="0" y="4" style="font-family: Arial, sans-serif; font-size: 10px; fill: black; font-weight: bold;">asado</tspan></text><text transform="rotate(-15.683705114068388) translate(250,0) rotate(0)"><tspan x="0" y="4" style="font-family: Arial, sans-serif; font-size: 10px; fill: black; font-weight: bold;">previa</tspan></text><text transform="rotate(-1.4800713969699757) translate(250,0) rotate(0)"><tspan x="0" y="4" style="font-family: Arial, sans-serif; font-size: 10px; fill: black; font-weight: bold;">delivery</tspan></text><text transform="rotate(6.060024153269211) translate(250,0) rotate(0)"><tspan x="0" y="4" style="font-family: Arial, sans-serif; font-size: 10px; fill: black; font-weight: bold;">restaurant</tspan></text><text transform="rotate(12.578887800541438) translate(250,0) rotate(0)"><tspan x="0" y="4" style="font-family: Arial, sans-serif; font-size: 10px; fill: black; font-weight: bold;">delivery</tspan></text><text transform="rotate(33.17373117704126) translate(250,0) rotate(0)"><tspan x="0" y="4" style="font-family: Arial, sans-serif; font-size: 10px; fill: black; font-weight: bold;">fiesta</tspan></text><text transform="rotate(59.759801717613755) translate(250,0) rotate(0)"><tspan x="0" y="4" style="font-family: Arial, sans-serif; font-size: 10px; fill: black; font-weight: bold;">restaurant</tspan></text><text transform="rotate(71.49035217636055) translate(250,0) rotate(0)"><tspan x="0" y="4" style="font-family: Arial, sans-serif; font-size: 10px; fill: black; font-weight: bold;">quiosco</tspan></text><text transform="rotate(82.92304333007536) translate(250,0) rotate(0)"><tspan x="0" y="4" style="font-family: Arial, sans-serif; font-size: 10px; fill: black; font-weight: bold;">previa</tspan></text><text transform="rotate(97.56362813738991) translate(250,0) rotate(180)"><tspan x="0" y="4" style="font-family: Arial, sans-serif; font-size: 10px; fill: black; font-weight: bold;">nafta</tspan></text><text transform="rotate(110.80145561100173) translate(250,0) rotate(180)"><tspan x="0" y="4" style="font-family: Arial, sans-serif; font-size: 10px; fill: black; font-weight: bold;">nafta</tspan></text><text transform="rotate(121.48157374256948) translate(250,0) rotate(180)"><tspan x="0" y="4" style="font-family: Arial, sans-serif; font-size: 10px; fill: black; font-weight: bold;">asado</tspan></text><text transform="rotate(132.1262142778281) translate(250,0) rotate(180)"><tspan x="0" y="4" style="font-family: Arial, sans-serif; font-size: 10px; fill: black; font-weight: bold;">delivery</tspan></text><text transform="rotate(142.8491492589809) translate(250,0) rotate(180)"><tspan x="0" y="4" style="font-family: Arial, sans-serif; font-size: 10px; fill: black; font-weight: bold;">fiesta</tspan></text><text transform="rotate(146.67876889510686) translate(250,0) rotate(180)"><tspan x="0" y="4" style="font-family: Arial, sans-serif; font-size: 10px; fill: black; font-weight: bold;">previa</tspan></text><text transform="rotate(166.1196083068818) translate(250,0) rotate(180)"><tspan x="0" y="4" style="font-family: Arial, sans-serif; font-size: 10px; fill: black; font-weight: bold;">asado</tspan></text><text transform="rotate(202.97279888309004) translate(250,0) rotate(180)"><tspan x="0" y="4" style="font-family: Arial, sans-serif; font-size: 10px; fill: black; font-weight: bold;">nafta</tspan></text><text transform="rotate(225.74661753809966) translate(250,0) rotate(180)"><tspan x="0" y="4" style="font-family: Arial, sans-serif; font-size: 10px; fill: black; font-weight: bold;">fiesta</tspan></text><text transform="rotate(233.74626744467395) translate(250,0) rotate(180)"><tspan x="0" y="4" style="font-family: Arial, sans-serif; font-size: 10px; fill: black; font-weight: bold;">delivery</tspan></text><text transform="rotate(238.34181100802516) translate(250,0) rotate(180)"><tspan x="0" y="4" style="font-family: Arial, sans-serif; font-size: 10px; fill: black; font-weight: bold;">truco</tspan></text><text transform="rotate(241.33742459006152) translate(250,0) rotate(180)"><tspan x="0" y="4" style="font-family: Arial, sans-serif; font-size: 10px; fill: black; font-weight: bold;">previa</tspan></text><text transform="rotate(244.57132561612343) translate(250,0) rotate(180)"><tspan x="0" y="4" style="font-family: Arial, sans-serif; font-size: 10px; fill: black; font-weight: bold;">quiosco</tspan></text><text transform="rotate(247.7031034518887) translate(250,0) rotate(180)"><tspan x="0" y="4" style="font-family: Arial, sans-serif; font-size: 10px; fill: black; font-weight: bold;">casino online</tspan></text><text transform="rotate(251.873133722337) translate(250,0) rotate(180)"><tspan x="0" y="4" style="font-family: Arial, sans-serif; font-size: 10px; fill: black; font-weight: bold;">restaurant</tspan></text><text transform="rotate(257.7452171643969) translate(250,0) rotate(180)"><tspan x="0" y="4" style="font-family: Arial, sans-serif; font-size: 10px; fill: black; font-weight: bold;">Nafta</tspan></text><text transform="rotate(265.57466175380995) translate(250,0) rotate(180)"><tspan x="0" y="4" style="font-family: Arial, sans-serif; font-size: 10px; fill: black; font-weight: bold;">Fiesta</tspan></text></g></svg>