<svg xmlns="http://www.w3.org/2000/svg" width="805" height="600"><rect width="805" height="600" x="0" y="0" fill="#FFFFFF" id="background"/><g transform="translate(10,10)" id="viz"><g><rect x="0" y="44.615384615384265" height="135.19980890976365" width="5" fill="black"><title>diciembre: 291338.67</title></rect><rect x="780" y="543.236524180949" height="36.763475819050996" width="5" fill="black"><title>martes: 79220.69</title></rect><rect x="780" y="490.7347112930812" height="37.63001801607288" width="5" fill="black"><title>miercoles: 81087.98</title></rect><rect x="780" y="268.4020744214791" height="55.50206275606217" width="5" fill="black"><title>jueves: 119600</title></rect><rect x="780" y="0" height="149.86485072276517" width="5" fill="black"><title>viernes: 322940</title></rect><rect x="780" y="164.73664559456006" height="88.79363395512416" width="5" fill="black"><title>sabado: 191339.16999999998</title></rect><rect x="780" y="338.7759320493361" height="58.17043115779592" width="5" fill="black"><title>domingo: 125350</title></rect><rect x="0" y="376.63204390837916" height="128.05254005963218" width="5" fill="black"><title>enero: 275937.2</title></rect><rect x="780" y="411.81815807892684" height="64.04475834235944" width="5" fill="black"><title>lunes: 138008.44</title></rect><rect x="0" y="519.5563788398063" height="60.44362116019374" width="5" fill="black"><title>febrero: 130248.44</title></rect><rect x="0" y="194.68698839694278" height="167.07326063964152" width="5" fill="black"><title>marzo: 360021.97</title></rect></g><g class="links" fill="none" stroke-opacity="1"><path d="M5,168.7192615125293C392.5,168.7192615125293,392.5,554.3324561935667,780,554.3324561935667" stroke="#e573fc" style="stroke-width: 22.1919; mix-blend-mode: multiply;"><title>diciembre → martes: 47820.69</title></path><path d="M5,146.79486313428168C392.5,146.79486313428168,392.5,501.5631776587111,780,501.5631776587111" stroke="#e573fc" style="stroke-width: 21.6569; mix-blend-mode: multiply;"><title>diciembre → miercoles: 46667.979999999996</title></path><path d="M5,123.22783805080996C392.5,123.22783805080996,392.5,278.82031278998744,780,278.82031278998744" stroke="#e573fc" style="stroke-width: 20.8365; mix-blend-mode: multiply;"><title>diciembre → jueves: 44900</title></path><path d="M5,73.6541937872955C392.5,73.6541937872955,392.5,29.03880917191123,780,29.03880917191123" stroke="#e573fc" style="stroke-width: 58.0776; mix-blend-mode: multiply;"><title>diciembre → viernes: 125150</title></path><path d="M5,107.75130132075424C392.5,107.75130132075424,392.5,169.79494395610757,780,169.79494395610757" stroke="#e573fc" style="stroke-width: 10.1166; mix-blend-mode: multiply;"><title>diciembre → sabado: 21800</title></path><path d="M5,134.806236593985C392.5,134.806236593985,392.5,339.93609222400295,780,339.93609222400295" stroke="#e573fc" style="stroke-width: 2.32032; mix-blend-mode: multiply;"><title>diciembre → domingo: 5000</title></path><path d="M5,390.2059179519812C392.5,390.2059179519812,392.5,120.35501651993894,780,120.35501651993894" stroke="#eec1f7" style="stroke-width: 27.1477; mix-blend-mode: multiply;"><title>enero → viernes: 58500</title></path><path d="M5,473.07253952868945C392.5,473.07253952868945,392.5,446.8549953538657,780,446.8549953538657" stroke="#eec1f7" style="stroke-width: 24.1313; mix-blend-mode: multiply;"><title>enero → lunes: 52000</title></path><path d="M5,488.08965282957735C392.5,488.08965282957735,392.5,519.4732617305076,780,519.4732617305076" stroke="#eec1f7" style="stroke-width: 5.90289; mix-blend-mode: multiply;"><title>enero → miercoles: 12720</title></path><path d="M5,454.40556231830004C392.5,454.40556231830004,392.5,382.96643310239637,780,382.96643310239637" stroke="#eec1f7" style="stroke-width: 13.2026; mix-blend-mode: multiply;"><title>enero → domingo: 28450</title></path><path d="M5,497.8628421409708C392.5,497.8628421409708,392.5,573.1782581729594,780,573.1782581729594" stroke="#eec1f7" style="stroke-width: 13.6435; mix-blend-mode: multiply;"><title>enero → martes: 29400</title></path><path d="M5,434.64803454372367C392.5,434.64803454372367,392.5,302.3947675392177,780,302.3947675392177" stroke="#eec1f7" style="stroke-width: 26.3124; mix-blend-mode: multiply;"><title>enero → jueves: 56700</title></path><path d="M5,412.63580507929237C392.5,412.63580507929237,392.5,238.7806527786676,780,238.7806527786676" stroke="#eec1f7" style="stroke-width: 17.712; mix-blend-mode: multiply;"><title>enero → sabado: 38167.2</title></path><path d="M5,565.5888522802628C392.5,565.5888522802628,392.5,467.39178879584364,780,467.39178879584364" stroke="#bf7df9" style="stroke-width: 16.9423; mix-blend-mode: multiply;"><title>febrero → lunes: 36508.44</title></path><path d="M5,527.5243589194182C392.5,527.5243589194182,392.5,141.8968706431529,780,141.8968706431529" stroke="#bf7df9" style="stroke-width: 15.936; mix-blend-mode: multiply;"><title>febrero → viernes: 34340</title></path><path d="M5,553.4284152993795C392.5,553.4284152993795,392.5,393.2570538516914,780,393.2570538516914" stroke="#bf7df9" style="stroke-width: 7.37862; mix-blend-mode: multiply;"><title>febrero → domingo: 15900</title></path><path d="M5,577.0299899528529C392.5,577.0299899528529,392.5,525.394719262007,780,525.394719262007" stroke="#bf7df9" style="stroke-width: 5.94002; mix-blend-mode: multiply;"><title>febrero → miercoles: 12800</title></path><path d="M5,545.5625293151381C392.5,545.5625293151381,392.5,319.72756054874037,780,319.72756054874037" stroke="#bf7df9" style="stroke-width: 8.35315; mix-blend-mode: multiply;"><title>febrero → jueves: 18000</title></path><path d="M5,538.4391458426838C392.5,538.4391458426838,392.5,250.58347270603014,780,250.58347270603014" stroke="#bf7df9" style="stroke-width: 5.89361; mix-blend-mode: multiply;"><title>febrero → sabado: 12700</title></path><path d="M5,345.21636494583487C392.5,345.21636494583487,392.5,423.3037438081288,780,423.3037438081288" stroke="#ccccce" style="stroke-width: 22.9712; mix-blend-mode: multiply;"><title>marzo → lunes: 49500</title></path><path d="M5,219.03875046319993C392.5,219.03875046319993,392.5,82.4293804100796,780,82.4293804100796" stroke="#ccccce" style="stroke-width: 48.7035; mix-blend-mode: multiply;"><title>marzo → viernes: 104950</title></path><path d="M5,270.92621121810896C392.5,270.92621121810896,392.5,202.38894100630677,780,202.38894100630677" stroke="#ccccce" style="stroke-width: 55.0714; mix-blend-mode: multiply;"><title>marzo → sabado: 118671.97</title></path><path d="M5,316.09634456169687C392.5,316.09634456169687,392.5,358.73068705360583,780,358.73068705360583" stroke="#ccccce" style="stroke-width: 35.2689; mix-blend-mode: multiply;"><title>marzo → domingo: 76000</title></path><path d="M5,361.29618496671725C392.5,361.29618496671725,392.5,565.8924522760517,780,565.8924522760517" stroke="#ccccce" style="stroke-width: 1; mix-blend-mode: multiply;"><title>marzo → martes: 2000</title></path><path d="M5,358.7670357859437C392.5,358.7670357859437,392.5,514.456729135248,780,514.456729135248" stroke="#ccccce" style="stroke-width: 4.13017; mix-blend-mode: multiply;"><title>marzo → miercoles: 8900</title></path></g><g><text x="9" y="112.2152890702661" text-anchor="start"><tspan alignment-baseline="middle" style="font-family: Arial, sans-serif; font-size: 10px; fill: black; font-weight: bold;">diciembre</tspan></text><text x="776" y="561.6182620904744" text-anchor="end"><tspan alignment-baseline="middle" style="font-family: Arial, sans-serif; font-size: 10px; fill: black; font-weight: bold;">martes</tspan></text><text x="776" y="509.54972030111765" text-anchor="end"><tspan alignment-baseline="middle" style="font-family: Arial, sans-serif; font-size: 10px; fill: black; font-weight: bold;">miercoles</tspan></text><text x="776" y="296.1531057995102" text-anchor="end"><tspan alignment-baseline="middle" style="font-family: Arial, sans-serif; font-size: 10px; fill: black; font-weight: bold;">jueves</tspan></text><text x="776" y="74.93242536138258" text-anchor="end"><tspan alignment-baseline="middle" style="font-family: Arial, sans-serif; font-size: 10px; fill: black; font-weight: bold;">viernes</tspan></text><text x="776" y="209.13346257212214" text-anchor="end"><tspan alignment-baseline="middle" style="font-family: Arial, sans-serif; font-size: 10px; fill: black; font-weight: bold;">sabado</tspan></text><text x="776" y="367.8611476282341" text-anchor="end"><tspan alignment-baseline="middle" style="font-family: Arial, sans-serif; font-size: 10px; fill: black; font-weight: bold;">domingo</tspan></text><text x="9" y="440.65831393819525" text-anchor="start"><tspan alignment-baseline="middle" style="font-family: Arial, sans-serif; font-size: 10px; fill: black; font-weight: bold;">enero</tspan></text><text x="776" y="443.84053725010654" text-anchor="end"><tspan alignment-baseline="middle" style="font-family: Arial, sans-serif; font-size: 10px; fill: black; font-weight: bold;">lunes</tspan></text><text x="9" y="549.7781894199031" text-anchor="start"><tspan alignment-baseline="middle" style="font-family: Arial, sans-serif; font-size: 10px; fill: black; font-weight: bold;">febrero</tspan></text><text x="9" y="278.22361871676355" text-anchor="start"><tspan alignment-baseline="middle" style="font-family: Arial, sans-serif; font-size: 10px; fill: black; font-weight: bold;">marzo</tspan></text></g></g></svg>