<svg xmlns="http://www.w3.org/2000/svg" width="805" height="600"><rect width="805" height="600" x="0" y="0" fill="#FFFFFF" id="background"/><g transform="translate(230,70)" id="viz"><g fill="none" font-size="10" font-family="sans-serif" text-anchor="middle"><path class="domain" stroke="currentColor" d="M0,0H505"/><g class="tick" opacity="1" transform="translate(26.183264887063647,0)"><line stroke="currentColor" y2="-6"/><text fill="currentColor" y="-9" dy="3.4641016151377544" dx="3.4641016151377544" text-anchor="start" transform="rotate(-45)">1</text></g><g class="tick" opacity="1" transform="translate(76.47587268993838,0)"><line stroke="currentColor" y2="-6"/><text fill="currentColor" y="-9" dy="3.4641016151377544" dx="3.4641016151377544" text-anchor="start" transform="rotate(-45)">2</text></g><g class="tick" opacity="1" transform="translate(126.76848049281313,0)"><line stroke="currentColor" y2="-6"/><text fill="currentColor" y="-9" dy="3.4641016151377544" dx="3.4641016151377544" text-anchor="start" transform="rotate(-45)">3</text></g><g class="tick" opacity="1" transform="translate(177.06108829568788,0)"><line stroke="currentColor" y2="-6"/><text fill="currentColor" y="-9" dy="3.4641016151377544" dx="3.4641016151377544" text-anchor="start" transform="rotate(-45)">4</text></g><g class="tick" opacity="1" transform="translate(227.3536960985626,0)"><line stroke="currentColor" y2="-6"/><text fill="currentColor" y="-9" dy="3.4641016151377544" dx="3.4641016151377544" text-anchor="start" transform="rotate(-45)">5</text></g><g class="tick" opacity="1" transform="translate(277.64630390143736,0)"><line stroke="currentColor" y2="-6"/><text fill="currentColor" y="-9" dy="3.4641016151377544" dx="3.4641016151377544" text-anchor="start" transform="rotate(-45)">6</text></g><g class="tick" opacity="1" transform="translate(327.93891170431215,0)"><line stroke="currentColor" y2="-6"/><text fill="currentColor" y="-9" dy="3.4641016151377544" dx="3.4641016151377544" text-anchor="start" transform="rotate(-45)">7</text></g><g class="tick" opacity="1" transform="translate(378.2315195071869,0)"><line stroke="currentColor" y2="-6"/><text fill="currentColor" y="-9" dy="3.4641016151377544" dx="3.4641016151377544" text-anchor="start" transform="rotate(-45)">8</text></g><g class="tick" opacity="1" transform="translate(428.5241273100616,0)"><line stroke="currentColor" y2="-6"/><text fill="currentColor" y="-9" dy="3.4641016151377544" dx="3.4641016151377544" text-anchor="start" transform="rotate(-45)">9</text></g><g class="tick" opacity="1" transform="translate(478.8167351129363,0)"><line stroke="currentColor" y2="-6"/><text fill="currentColor" y="-9" dy="3.4641016151377544" dx="3.4641016151377544" text-anchor="start" transform="rotate(-45)">10</text></g></g><g fill="none" font-size="10" font-family="sans-serif" text-anchor="end"><path class="domain" stroke="currentColor" d="M0,0V505"/><g class="tick" opacity="1" transform="translate(0,26.183264887063647)"><line stroke="currentColor" x2="-6"/><text fill="currentColor" x="-9" dy="0.32em">1</text></g><g class="tick" opacity="1" transform="translate(0,76.47587268993838)"><line stroke="currentColor" x2="-6"/><text fill="currentColor" x="-9" dy="0.32em">2</text></g><g class="tick" opacity="1" transform="translate(0,126.76848049281313)"><line stroke="currentColor" x2="-6"/><text fill="currentColor" x="-9" dy="0.32em">3</text></g><g class="tick" opacity="1" transform="translate(0,177.06108829568788)"><line stroke="currentColor" x2="-6"/><text fill="currentColor" x="-9" dy="0.32em">4</text></g><g class="tick" opacity="1" transform="translate(0,227.3536960985626)"><line stroke="currentColor" x2="-6"/><text fill="currentColor" x="-9" dy="0.32em">5</text></g><g class="tick" opacity="1" transform="translate(0,277.64630390143736)"><line stroke="currentColor" x2="-6"/><text fill="currentColor" x="-9" dy="0.32em">6</text></g><g class="tick" opacity="1" transform="translate(0,327.93891170431215)"><line stroke="currentColor" x2="-6"/><text fill="currentColor" x="-9" dy="0.32em">7</text></g><g class="tick" opacity="1" transform="translate(0,378.2315195071869)"><line stroke="currentColor" x2="-6"/><text fill="currentColor" x="-9" dy="0.32em">8</text></g><g class="tick" opacity="1" transform="translate(0,428.5241273100616)"><line stroke="currentColor" x2="-6"/><text fill="currentColor" x="-9" dy="0.32em">9</text></g><g class="tick" opacity="1" transform="translate(0,478.8167351129363)"><line stroke="currentColor" x2="-6"/><text fill="currentColor" x="-9" dy="0.32em">10</text></g></g><text dx="-9" dy="-9" style="text-anchor: end; font-family: Arial, sans-serif; font-size: 12px; fill: rgb(123, 123, 123); font-weight: bold;">nivel de statisfaccion</text><text x="363.4528855298854" y="363.4528855298854" dx="3.4641016151377544" dy="-3.4641016151377544" transform="rotate(-45)" style="text-anchor: start; font-family: Arial, sans-serif; font-size: 12px; fill: rgb(123, 123, 123); font-weight: bold;">importancia</text><rect x="461.81005275335144" y="210.34701373897775" rx="0" ry="0" width="34.294678887547555" height="34.294678887547555" style="fill: rgb(138, 32, 162);"/><rect x="54.92667039237934" y="356.6823172096278" rx="0" ry="0" width="43.379718763495916" height="43.379718763495916" style="fill: rgb(138, 32, 162);"/><rect x="103.90356759927708" y="405.6592144165255" rx="0" ry="0" width="46.01113995544992" height="46.01113995544992" style="fill: rgb(138, 32, 162);"/><rect x="203.24435318275152" y="454.7073921971252" rx="0" ry="0" width="48.5" height="48.5" style="fill: rgb(138, 32, 162);"/><rect x="158.41777615077083" y="259.00299175652026" rx="0" ry="0" width="37.56793845821194" height="37.56793845821194" style="fill: rgb(138, 32, 162);"/><rect x="105.21927819525408" y="356.6823172096278" rx="0" ry="0" width="43.379718763495916" height="43.379718763495916" style="fill: rgb(138, 32, 162);"/><rect x="52.3665297741273" y="454.7073921971252" rx="0" ry="0" width="48.5" height="48.5" style="fill: rgb(138, 32, 162);"/><rect x="465.67512017762493" y="113.62686555750176" rx="0" ry="0" width="26.564544039000555" height="26.564544039000555" style="fill: rgb(138, 32, 162);"/><rect x="53.61095979640234" y="405.6592144165255" rx="0" ry="0" width="46.01113995544992" height="46.01113995544992" style="fill: rgb(138, 32, 162);"/><rect x="2.0739219712525596" y="454.7073921971252" rx="0" ry="0" width="48.5" height="48.5" style="fill: rgb(138, 32, 162);"/><rect x="154.19617540215182" y="405.6592144165255" rx="0" ry="0" width="46.01113995544992" height="46.01113995544992" style="fill: rgb(138, 32, 162);"/><rect x="56.32752413067597" y="307.7905631450497" rx="0" ry="0" width="40.578011286902665" height="40.578011286902665" style="fill: rgb(138, 32, 162);"/><rect x="156.91273973642546" y="307.7905631450497" rx="0" ry="0" width="40.578011286902665" height="40.578011286902665" style="fill: rgb(138, 32, 162);"/><rect x="415.3825123747502" y="113.62686555750176" rx="0" ry="0" width="26.564544039000555" height="26.564544039000555" style="fill: rgb(138, 32, 162);"/><rect x="210.34701373897775" y="210.34701373897775" rx="0" ry="0" width="34.294678887547555" height="34.294678887547555" style="fill: rgb(138, 32, 162);"/><rect x="468.11246250625123" y="65.77160008325332" rx="0" ry="0" width="21.689859381747958" height="21.689859381747958" style="fill: rgb(138, 32, 162);"/><rect x="307.7905631450497" y="307.7905631450497" rx="0" ry="0" width="40.578011286902665" height="40.578011286902665" style="fill: rgb(138, 32, 162);"/><rect x="471.2888688712169" y="18.65539864534424" rx="0" ry="0" width="15.33704665181664" height="15.33704665181664" style="fill: rgb(138, 32, 162);"/><rect x="152.9517453798768" y="454.7073921971252" rx="0" ry="0" width="48.5" height="48.5" style="fill: rgb(138, 32, 162);"/><rect x="355.3666066136508" y="405.6592144165255" rx="0" ry="0" width="46.01113995544992" height="46.01113995544992" style="fill: rgb(138, 32, 162);"/><rect x="305.07399881077606" y="405.6592144165255" rx="0" ry="0" width="46.01113995544992" height="46.01113995544992" style="fill: rgb(138, 32, 162);"/><rect x="365.0899045718755" y="113.62686555750176" rx="0" ry="0" width="26.564544039000555" height="26.564544039000555" style="fill: rgb(138, 32, 162);"/><rect x="102.65913757700204" y="454.7073921971252" rx="0" ry="0" width="48.5" height="48.5" style="fill: rgb(138, 32, 162);"/><rect x="303.82956878850104" y="454.7073921971252" rx="0" ry="0" width="48.5" height="48.5" style="fill: rgb(138, 32, 162);"/><rect x="266.94203129475227" y="65.77160008325332" rx="0" ry="0" width="21.689859381747958" height="21.689859381747958" style="fill: rgb(138, 32, 162);"/><rect x="204.48878320502655" y="405.6592144165255" rx="0" ry="0" width="46.01113995544992" height="46.01113995544992" style="fill: rgb(138, 32, 162);"/><rect x="270.1184376597179" y="18.65539864534424" rx="0" ry="0" width="15.33704665181664" height="15.33704665181664" style="fill: rgb(138, 32, 162);"/><rect x="10.986875319435919" y="161.86469872806015" rx="0" ry="0" width="30.67409330363328" height="30.67409330363328" style="fill: rgb(138, 32, 162);"/><rect x="7.539952742146589" y="259.00299175652026" rx="0" ry="0" width="37.56793845821194" height="37.56793845821194" style="fill: rgb(138, 32, 162);"/><rect x="354.12217659137576" y="454.7073921971252" rx="0" ry="0" width="48.5" height="48.5" style="fill: rgb(138, 32, 162);"/><g id="labels"><g transform="translate(478.9573921971252,227.49435318275152)"><text x="0" y="0" text-anchor="middle" dominant-baseline="text-before-edge" transform="translate(0,0)"/></g><g transform="translate(76.6165297741273,378.37217659137576)"><text x="0" y="0" text-anchor="middle" dominant-baseline="text-before-edge" transform="translate(0,0)"/></g><g transform="translate(126.90913757700204,428.6647843942505)"><text x="0" y="0" text-anchor="middle" dominant-baseline="text-before-edge" transform="translate(0,0)"/></g><g transform="translate(227.49435318275152,478.9573921971252)"><text x="0" y="0" text-anchor="middle" dominant-baseline="text-before-edge" transform="translate(0,0)"/></g><g transform="translate(177.2017453798768,277.78696098562625)"><text x="0" y="0" text-anchor="middle" dominant-baseline="text-before-edge" transform="translate(0,0)"/></g><g transform="translate(126.90913757700204,378.37217659137576)"><text x="0" y="0" text-anchor="middle" dominant-baseline="text-before-edge" transform="translate(0,0)"/></g><g transform="translate(76.6165297741273,478.9573921971252)"><text x="0" y="0" text-anchor="middle" dominant-baseline="text-before-edge" transform="translate(0,0)"/></g><g transform="translate(478.9573921971252,126.90913757700204)"><text x="0" y="0" text-anchor="middle" dominant-baseline="text-before-edge" transform="translate(0,0)"/></g><g transform="translate(76.6165297741273,428.6647843942505)"><text x="0" y="0" text-anchor="middle" dominant-baseline="text-before-edge" transform="translate(0,0)"/></g><g transform="translate(26.32392197125256,478.9573921971252)"><text x="0" y="0" text-anchor="middle" dominant-baseline="text-before-edge" transform="translate(0,0)"/></g><g transform="translate(177.2017453798768,428.6647843942505)"><text x="0" y="0" text-anchor="middle" dominant-baseline="text-before-edge" transform="translate(0,0)"/></g><g transform="translate(76.6165297741273,328.07956878850104)"><text x="0" y="0" text-anchor="middle" dominant-baseline="text-before-edge" transform="translate(0,0)"/></g><g transform="translate(177.2017453798768,328.07956878850104)"><text x="0" y="0" text-anchor="middle" dominant-baseline="text-before-edge" transform="translate(0,0)"/></g><g transform="translate(428.6647843942505,126.90913757700204)"><text x="0" y="0" text-anchor="middle" dominant-baseline="text-before-edge" transform="translate(0,0)"/></g><g transform="translate(227.49435318275152,227.49435318275152)"><text x="0" y="0" text-anchor="middle" dominant-baseline="text-before-edge" transform="translate(0,0)"/></g><g transform="translate(478.9573921971252,76.6165297741273)"><text x="0" y="0" text-anchor="middle" dominant-baseline="text-before-edge" transform="translate(0,0)"/></g><g transform="translate(328.07956878850104,328.07956878850104)"><text x="0" y="0" text-anchor="middle" dominant-baseline="text-before-edge" transform="translate(0,0)"/></g><g transform="translate(478.9573921971252,26.32392197125256)"><text x="0" y="0" text-anchor="middle" dominant-baseline="text-before-edge" transform="translate(0,0)"/></g><g transform="translate(177.2017453798768,478.9573921971252)"><text x="0" y="0" text-anchor="middle" dominant-baseline="text-before-edge" transform="translate(0,0)"/></g><g transform="translate(378.37217659137576,428.6647843942505)"><text x="0" y="0" text-anchor="middle" dominant-baseline="text-before-edge" transform="translate(0,0)"/></g><g transform="translate(328.07956878850104,428.6647843942505)"><text x="0" y="0" text-anchor="middle" dominant-baseline="text-before-edge" transform="translate(0,0)"/></g><g transform="translate(378.37217659137576,126.90913757700204)"><text x="0" y="0" text-anchor="middle" dominant-baseline="text-before-edge" transform="translate(0,0)"/></g><g transform="translate(126.90913757700204,478.9573921971252)"><text x="0" y="0" text-anchor="middle" dominant-baseline="text-before-edge" transform="translate(0,0)"/></g><g transform="translate(328.07956878850104,478.9573921971252)"><text x="0" y="0" text-anchor="middle" dominant-baseline="text-before-edge" transform="translate(0,0)"/></g><g transform="translate(277.78696098562625,76.6165297741273)"><text x="0" y="0" text-anchor="middle" dominant-baseline="text-before-edge" transform="translate(0,0)"/></g><g transform="translate(227.49435318275152,428.6647843942505)"><text x="0" y="0" text-anchor="middle" dominant-baseline="text-before-edge" transform="translate(0,0)"/></g><g transform="translate(277.78696098562625,26.32392197125256)"><text x="0" y="0" text-anchor="middle" dominant-baseline="text-before-edge" transform="translate(0,0)"/></g><g transform="translate(26.32392197125256,177.2017453798768)"><text x="0" y="0" text-anchor="middle" dominant-baseline="text-before-edge" transform="translate(0,0)"/></g><g transform="translate(26.32392197125256,277.78696098562625)"><text x="0" y="0" text-anchor="middle" dominant-baseline="text-before-edge" transform="translate(0,0)"/></g><g transform="translate(378.37217659137576,478.9573921971252)"><text x="0" y="0" text-anchor="middle" dominant-baseline="text-before-edge" transform="translate(0,0)"/></g></g></g></svg>